<?xml version="1.0" encoding="utf-8"?>
<svg viewBox="0 0 500 500" xmlns="http://www.w3.org/2000/svg">
  <g transform="matrix(0.976563, 0, 0, -0.976563, -0.000137, 437.500092)">
    <g transform="">
      <path d="M 256 192 L 375 274 L 375 125 C 375 117 368 110 360 110 L 136 110 L 136 274 L 256 192 Z M 512 192 C 512 51 397 -64 256 -64 C 168 -64 91 -20 45 47 L 91 79 C 127 27 187 -8 256 -8 C 366 -8 456 82 456 192 C 456 233 443 272 420 305 L 420 305 C 384 358 324 392 256 392 C 145 392 56 303 56 192 C 56 152 68 112 91 79 L 45 47 C 16 90 0 140 0 192 C 0 333 115 448 256 448 C 343 448 420 404 466 337 C 496 294 512 244 512 192 Z M 512 192" />
    </g>
  </g>
</svg>
