<?xml version="1.0" encoding="utf-8"?>
<svg viewBox="0 0 500 500" xmlns="http://www.w3.org/2000/svg">
  <path d="M 207.401 11.364 C 399.543 -22.311 454.017 14.335 488.682 207.468 C 522.357 400.602 487.692 454.085 291.587 488.75 C 95.482 522.424 44.97 484.788 11.296 291.655 C -23.369 98.521 16.248 45.038 207.401 11.364 Z M 230.18 96.54 C 193.535 102.483 166.793 119.32 150.946 144.081 C 139.061 162.899 135.099 185.679 139.061 204.497 C 146.984 244.114 179.669 269.865 247.018 274.817 L 251.97 274.817 L 257.912 275.808 L 262.864 275.808 C 285.644 277.789 300.501 282.741 309.415 287.693 C 314.367 290.664 317.338 294.626 318.328 303.54 C 321.3 320.377 308.424 336.224 272.769 342.166 C 249.989 346.128 225.228 341.176 198.487 326.32 C 178.678 315.425 153.917 330.281 154.908 353.061 C 154.908 363.956 160.85 372.87 169.764 377.822 C 208.391 398.621 246.027 406.544 283.663 399.611 C 348.041 388.717 385.677 345.138 375.773 293.635 C 367.85 244.114 333.185 222.325 255.931 216.382 L 250.979 216.382 C 226.219 214.401 211.362 209.449 202.448 203.507 C 198.487 200.535 197.496 197.564 196.506 193.602 C 195.515 188.65 197.496 181.717 201.458 174.784 C 207.401 164.88 219.286 157.947 240.085 153.985 C 257.912 151.014 275.74 153.985 294.558 163.889 C 314.367 174.784 338.137 159.928 338.137 137.148 C 337.147 127.244 331.204 117.339 322.29 112.387 C 292.577 96.54 261.874 90.598 230.18 96.54 Z M 230.18 96.54" />
</svg>
