<?xml version="1.0" encoding="utf-8"?>
<svg viewBox="0 0 500 500" xmlns="http://www.w3.org/2000/svg">
  <path d="M 500 183.794 L 500 248.024 C 442.688 248.024 387.352 270.751 346.838 310.277 C 314.229 342.885 292.49 383.399 285.573 427.866 L 500 427.866 L 500 493.083 L 0 493.083 L 0 427.866 L 215.415 427.866 C 208.498 383.399 186.759 341.897 154.15 309.289 C 113.636 269.763 58.3 247.036 0 247.036 L 0 181.818 C 51.383 181.818 102.767 195.652 146.245 222.332 C 190.711 248.024 226.285 285.573 250.988 331.028 C 274.704 286.561 310.277 249.012 354.743 223.32 C 398.221 196.64 448.617 183.794 500 183.794 Z M 169.96 85.968 C 169.96 42.49 205.534 6.917 250 6.917 C 294.466 6.917 330.04 42.49 330.04 85.968 C 330.04 129.447 294.466 164.032 250 164.032 C 205.534 164.032 169.96 129.447 169.96 85.968 Z M 169.96 85.968" />
</svg>
